<svg xmlns="http://www.w3.org/2000/svg" viewBox="0 0 70 70">
  <!-- Fond sombre -->
  <circle cx="35" cy="35" r="34" fill="#1a2e0f"/>
  <!-- Anneau or externe -->
  <circle cx="35" cy="35" r="34" fill="none" stroke="#c9a84c" stroke-width="2.5"/>
  <!-- Anneau or interne -->
  <circle cx="35" cy="35" r="27" fill="none" stroke="#c9a84c" stroke-width="1"/>
  <!-- 12 petits points or (marqueurs décoratifs) -->
  <circle cx="35" cy="7" r="1.4" fill="#c9a84c"/>
  <circle cx="49.5" cy="10.6" r="1.4" fill="#c9a84c"/>
  <circle cx="60.4" cy="20.5" r="1.4" fill="#c9a84c"/>
  <circle cx="64" cy="35" r="1.4" fill="#c9a84c"/>
  <circle cx="60.4" cy="49.5" r="1.4" fill="#c9a84c"/>
  <circle cx="49.5" cy="59.4" r="1.4" fill="#c9a84c"/>
  <circle cx="35" cy="63" r="1.4" fill="#c9a84c"/>
  <circle cx="20.5" cy="59.4" r="1.4" fill="#c9a84c"/>
  <circle cx="9.6" cy="49.5" r="1.4" fill="#c9a84c"/>
  <circle cx="6" cy="35" r="1.4" fill="#c9a84c"/>
  <circle cx="9.6" cy="20.5" r="1.4" fill="#c9a84c"/>
  <circle cx="20.5" cy="10.6" r="1.4" fill="#c9a84c"/>
  <!-- Tige centrale -->
  <line x1="35" y1="46" x2="35" y2="18" stroke="#7a9440" stroke-width="1.8" stroke-linecap="round"/>
  <!-- Feuilles -->
  <ellipse cx="29" cy="24" rx="7" ry="2.5" fill="#7a9440" transform="rotate(-38,29,24)"/>
  <ellipse cx="41" cy="22" rx="7" ry="2.5" fill="#5a7230" transform="rotate(38,41,22)"/>
  <ellipse cx="28" cy="31" rx="6.5" ry="2.2" fill="#7a9440" transform="rotate(-28,28,31)"/>
  <ellipse cx="42" cy="29" rx="6" ry="2.2" fill="#5a7230" transform="rotate(28,42,29)"/>
  <ellipse cx="28" cy="38" rx="6" ry="2" fill="#7a9440" transform="rotate(-20,28,38)"/>
  <ellipse cx="42" cy="36" rx="5.5" ry="2" fill="#5a7230" transform="rotate(20,42,36)"/>
  <!-- Olive (fruit) -->
  <ellipse cx="35" cy="44" rx="3.2" ry="4.5" fill="#c9a84c"/>
  <ellipse cx="34" cy="42" rx="1.5" ry="2.2" fill="#e8c96a" opacity="0.5"/>
  <!-- Texte VIERGE EXTRA -->
  <text x="35" y="56" text-anchor="middle" font-family="Georgia, serif" font-size="5.5" font-weight="bold" fill="#c9a84c" letter-spacing="1.5">VIERGE EXTRA</text>
  <text x="35" y="63" text-anchor="middle" font-family="Arial, sans-serif" font-size="4" fill="#c9a84c" letter-spacing="1" opacity="0.8">RÈG. UE 2022/2104</text>
</svg>
